<svg xmlns="http://www.w3.org/2000/svg" version="1.1" xmlns:xlink="http://www.w3.org/1999/xlink" xmlns:svgjs="http://svgjs.com/svgjs" width="512" height="512" x="0" y="0" viewBox="0 0 512 512" style="enable-background:new 0 0 512 512" xml:space="preserve" class=""><g><path d="M330.9 252.1c8.1-13.3 15.5-25.4 22.8-37.5 5.4-8.8 10.5-17.8 16.2-26.5 7.5-11.6 19.8-11.9 28.2-1.1 1.1 1.4 2.1 2.9 3 4.5 34.2 56 68.4 112 102.6 168.1 12.5 20.5 10.7 43.1-4.1 59.5-11 12.3-25.3 16.5-41.4 16.5H50.3c-19.1 0-35.2-5.8-44.8-23.4-9.3-17.2-6.3-33.3 3.9-49.4 56.1-89 112-178.2 167.7-267.4 15.7-25 38.9-25.2 54.7-.1C262.7 144 293.4 193 324 242c1.9 2.9 3.9 5.7 6.9 10.1z" fill="#1a73e8" data-original="#000000"></path></g></svg>