<svg height="512" viewBox="0 0 25 25" width="512" xmlns="http://www.w3.org/2000/svg"><g id="Erase" fill="rgb(0,0,0)"><path d="m11.65 20a.5.5 0 0 1 -.354-.854l7.71-7.709a1.478 1.478 0 0 0 .446-1.054 1.5 1.5 0 0 0 -.446-1.07l-2.819-2.819a1.5 1.5 0 0 0 -1.065-.447 1.472 1.472 0 0 0 -1.051.444l-8.077 8.072a1.478 1.478 0 0 0 -.446 1.054 1.5 1.5 0 0 0 .446 1.07l2.46 2.459a.5.5 0 0 1 -.707.708l-2.46-2.46a2.487 2.487 0 0 1 0-3.54l8.067-8.067a2.466 2.466 0 0 1 1.758-.739h.008a2.492 2.492 0 0 1 1.772.74l2.819 2.819a2.487 2.487 0 0 1 0 3.54l-7.711 7.707a.5.5 0 0 1 -.35.146z"/><path d="m18.5 20h-10.4a.5.5 0 0 1 0-1h10.4a.5.5 0 0 1 0 1z"/><path d="m13.83 17.83a.5.5 0 0 1 -.353-.146l-5.65-5.65a.5.5 0 0 1 .707-.707l5.65 5.65a.5.5 0 0 1 -.354.853z"/></g></svg>