<svg xmlns="http://www.w3.org/2000/svg" version="1.1" xmlns:xlink="http://www.w3.org/1999/xlink" xmlns:svgjs="http://svgjs.com/svgjs" width="512" height="512" x="0" y="0" viewBox="0 0 486.132 486.132" style="enable-background:new 0 0 512 512" xml:space="preserve"><g><path d="m481.828 201.114-51.629-56.693a34.602 34.602 0 0 0-17.361-10.314l-32.127-7.859-38.136-35.326-6.638-59.475c-1.001-8.92-8.91-15.36-17.98-14.352-8.926.993-15.359 9.038-14.359 17.972l7.324 65.489a16.326 16.326 0 0 0 5.114 10.126l55.431 51.344-22.728 94.031-60.007-1.445c-6.909-.271-13.945 2.771-18.697 8.037l-58.448 64.741c-9.037 10.007-8.244 25.429 1.762 34.458 9.959 9.029 25.428 8.236 34.453-1.754l50.953-56.435 41.33.993-24.272 34.633a24.413 24.413 0 0 0-4.034 18.315l15.532 86.501c2.129 11.801 12.406 20.094 23.987 20.094 1.427 0 2.89-.128 4.333-.392 13.264-2.382 22.094-15.065 19.715-28.327l-13.742-76.503 44.57-63.615c1.619-2.31 2.927-4.792 3.588-7.44 5.777-23.157 22.413-92.727 22.413-92.727l20.348 22.11-9.831 59.029c-1.479 8.857 4.509 17.234 13.371 18.712.904.151 1.798.224 2.688.224 7.814 0 14.706-5.64 16.025-13.597l11.135-66.87a16.268 16.268 0 0 0-4.083-13.685z" fill="#1a73e8" data-original="#000000"></path><path d="M397.312 118.846c17.106 11.611 40.425 7.132 52.05-10.015 11.609-17.13 7.132-40.44-10.007-52.059-17.154-11.619-40.44-7.132-52.065 9.999-11.599 17.146-7.133 40.448 10.022 52.075zM212.555 74.682l82.244-60.184a5.765 5.765 0 0 0 2.082-6.432 5.778 5.778 0 0 0-5.482-3.963H25.762C11.533 4.102 0 15.634 0 29.858v444.047a8.118 8.118 0 0 0 6.084 7.863 8.122 8.122 0 0 0 9.133-3.916l70.476-126.624a49.34 49.34 0 0 0 4.972-12.904l24.35-105.491a49.425 49.425 0 0 1 13.961-24.556l43.299-41.465a49.394 49.394 0 0 0 14.389-26.589l6.514-34.77a49.296 49.296 0 0 1 19.377-30.771z" fill="#1a73e8" data-original="#000000"></path></g></svg>