<svg xmlns="http://www.w3.org/2000/svg" version="1.1" xmlns:xlink="http://www.w3.org/1999/xlink" xmlns:svgjs="http://svgjs.com/svgjs" width="512" height="512" x="0" y="0" viewBox="0 0 46.009 46.009" style="enable-background:new 0 0 512 512" xml:space="preserve"><g><path d="M44.943 19.808c.586 0 1.062-.476 1.062-1.063V13.87c0-.587-.476-1.063-1.062-1.063h-1.939v-2.85a3.87 3.87 0 0 0-.629-2.114l-2.1-3.225a.923.923 0 0 0-1.542 0l-2.102 3.227a3.87 3.87 0 0 0-.628 2.114v2.849h-4v-2.85a3.87 3.87 0 0 0-.628-2.114l-2.102-3.226a.921.921 0 0 0-1.542 0l-2.102 3.227a3.87 3.87 0 0 0-.628 2.114v2.849h-4v-2.85a3.87 3.87 0 0 0-.628-2.114l-2.101-3.226a.92.92 0 0 0-1.542 0l-2.101 3.227a3.87 3.87 0 0 0-.628 2.114v2.849h-4v-2.85a3.87 3.87 0 0 0-.628-2.114L7.272 4.618a.92.92 0 0 0-1.543 0L3.628 7.844A3.87 3.87 0 0 0 3 9.958v2.85H1.062c-.587 0-1.062.476-1.062 1.063v4.875c0 .586.475 1.062 1.062 1.062h1.942v9H1.066c-.587 0-1.062.477-1.062 1.062v4.875c0 .586.475 1.062 1.062 1.062h1.938v4.938c0 .586.476 1.062 1.063 1.062h4.875c.587 0 1.063-.477 1.063-1.063v-4.938h4v4.938c0 .587.476 1.063 1.063 1.063h4.875c.587 0 1.063-.478 1.063-1.063v-4.938h4v4.938c0 .587.476 1.063 1.062 1.063h4.875c.589 0 1.063-.478 1.063-1.063v-4.938h4v4.938c0 .587.476 1.063 1.063 1.063h4.875c.586 0 1.062-.478 1.062-1.063v-4.938h1.938c.589 0 1.063-.477 1.063-1.063v-4.875c0-.587-.475-1.062-1.063-1.062h-1.941v-9l1.94.002zm-34.939 9v-9h4v9h-4zm11 0v-9h4v9h-4zm15 0h-4v-9h4v9z" fill="#1a73e8" data-original="#000000"></path></g></svg>