<svg xmlns="http://www.w3.org/2000/svg" version="1.1" xmlns:xlink="http://www.w3.org/1999/xlink" xmlns:svgjs="http://svgjs.com/svgjs" width="512" height="512" x="0" y="0" viewBox="0 0 60 60" style="enable-background:new 0 0 512 512" xml:space="preserve"><g><path d="M30.749 20.19c2.82 0 5.11-2.29 5.11-5.11s-2.29-5.12-5.11-5.12-5.11 2.3-5.11 5.12 2.29 5.11 5.11 5.11z" fill="#1a73e8" data-original="#000000"></path><path d="M12.729 21.88a5.547 5.547 0 0 0-1.62 5.1 5.512 5.512 0 0 0 3.37 4.08l6.73 2.71-1.88 7.88a2.027 2.027 0 0 0 1.98 2.51c.8 0 1.56-.48 1.88-1.26l3.59-8.69c.84-2.05 0-4.38-1.97-5.42l-4.41-2.32c.8-.89 1.79-1.6 3.01-2.15l.65 2.8a2.794 2.794 0 0 0 2.96 2.17l6.5-.5c1.05-.09 1.87-.97 1.87-2.02 0-1.06-.79-1.93-1.85-2.02l-5.27-.45s-.01 0-.01-.01l-.22-2.64c-2.26-.93-3.95-3.01-4.31-5.51-3.85.5-7.55 2.43-11 5.74z" fill="#1a73e8" data-original="#000000"></path><path d="M6.159 30.76c-.18.27-.21.62-.09.92 2.77 6.87 7.85 18.36 10.9 18.36h.03c.07 0 .14-.01.21-.03l8.01-1.96c5.74-1.41 10.56-5.03 13.25-9.93 1.79-3.29 4.27-5.05 5.17-5.61l5.97 2.07c1.21.43 2.66.07 3.53-.89.59-.65.9-1.49.86-2.38-.05-.89-.44-1.71-1.1-2.3l-6.37-5.73.33-3.55a.976.976 0 0 0-.46-.93.997.997 0 0 0-1.04-.03c-1.94 1.13-2.85 3.05-3.22 4.07-1.77.29-3.57.88-5.38 1.74.4.63.63 1.38.63 2.19 0 2.07-1.62 3.83-3.7 4.01l-4.75.37c.29 1.23.21 2.56-.31 3.82l-3.59 8.69a4.015 4.015 0 0 1-3.73 2.5c-.48 0-.93-.08-1.35-.23-1.95-.67-3.07-2.72-2.57-4.76l1.47-6.19-5.13-2.06a7.45 7.45 0 0 1-3.38-2.7l-3.38.09c-.32.01-.63.17-.81.45z" fill="#1a73e8" data-original="#000000"></path></g></svg>