<svg xmlns="http://www.w3.org/2000/svg" version="1.1" xmlns:xlink="http://www.w3.org/1999/xlink" xmlns:svgjs="http://svgjs.com/svgjs" width="512" height="512" x="0" y="0" viewBox="0 0 512 512" style="enable-background:new 0 0 512 512" xml:space="preserve" class=""><g><path d="M319.004 256c0 6.094-1.145 11.871-2.766 17.45l58.14 33.566c6.782-15.664 10.618-32.887 10.618-51.016s-3.836-35.352-10.617-51.016l-58.14 33.567c1.62 5.578 2.765 11.355 2.765 17.449zM192.996 256c0-6.094 1.145-11.871 2.766-17.45l-58.14-33.566c-6.778 15.664-10.614 32.887-10.614 51.016s3.836 35.352 10.613 51.016l58.14-33.567c-1.62-5.578-2.765-11.355-2.765-17.449zM359.031 179.195C338.355 151.535 307 132.762 271 128.523V195c11.77 2.898 22.238 9.008 30.375 17.488zM222.996 256c0 18.191 14.813 33.004 33.004 33.004S289.004 274.19 289.004 256 274.19 222.996 256 222.996 222.996 237.81 222.996 256zM271 317v66.477c36-4.239 67.355-23.012 88.031-50.672l-57.656-33.293c-8.137 8.48-18.605 14.59-30.375 17.488zm0 0" fill="#1a73e8" data-original="#000000" class=""></path><path d="M256 512c140.61 0 256-115.39 256-256S396.61 0 256 0 0 115.39 0 256s115.39 256 256 256zm0-414.992c89.508 0 158.992 75.02 158.992 158.992 0 84.012-69.535 158.992-158.992 158.992-89.61 0-158.992-75.215-158.992-158.992 0-85.246 70.504-158.992 158.992-158.992zm0 0" fill="#1a73e8" data-original="#000000" class=""></path><path d="M152.969 332.805C173.645 360.465 205 379.238 241 383.477V317c-11.77-2.898-22.238-9.008-30.375-17.488zM241 195v-66.477c-36 4.239-67.355 23.012-88.031 50.672l57.656 33.293c8.137-8.48 18.605-14.59 30.375-17.488zm0 0" fill="#1a73e8" data-original="#000000" class=""></path></g></svg>