<svg xmlns="http://www.w3.org/2000/svg" version="1.1" xmlns:xlink="http://www.w3.org/1999/xlink" xmlns:svgjs="http://svgjs.com/svgjs" width="512" height="512" x="0" y="0" viewBox="0 0 32 32" style="enable-background:new 0 0 512 512" xml:space="preserve"><g><path d="M16 1.2a15 15 0 1 0 15 15 15 15 0 0 0-15-15zM24.27 12l-10.7 10.7a.27.27 0 0 1-.37 0l-5.47-5.5a1 1 0 0 1 0-1.41 1 1 0 0 1 1.41 0l4.06 4.06a.27.27 0 0 0 .37 0l9.29-9.29a1 1 0 0 1 1.41 0 1 1 0 0 1 0 1.44z" data-name="Layer 2" fill="#1f752a" data-original="#000000"></path></g></svg>