<svg xmlns="http://www.w3.org/2000/svg" version="1.1" xmlns:xlink="http://www.w3.org/1999/xlink" xmlns:svgjs="http://svgjs.com/svgjs" width="512" height="512" x="0" y="0" viewBox="0 0 596.297 596.297" style="enable-background:new 0 0 512 512" xml:space="preserve" class=""><g><g fill-rule="evenodd" clip-rule="evenodd"><path d="M137.506 203.433a66.622 66.622 0 0 0 13.433 27.757 57.396 57.396 0 0 0 46.09 19.343c20.675 0 39.266-13.895 52.344-39.126C275.668 160.653 278.193 67.238 244.418 0c33.538 10.853 93.867 41.909 119.281 127.598a10.746 10.746 0 0 0 10.305 7.694c2.998 0 26.661-1.268 42.135-39.76a444.888 444.888 0 0 1 86.183 264.352 233.853 233.853 0 0 1-39.212 129.672 86.316 86.316 0 0 0-30.089 9.145c-.376-.473-.655-.989-1.075-1.451l-9.704-11.638c20.041-63.735-26.693-148.123-28.767-151.798a10.746 10.746 0 0 0-20.106 5.222 37.342 37.342 0 0 1-13.476 27.295 157.773 157.773 0 0 0-102.71-81.412 10.748 10.748 0 0 0-12.552 13.11c8.027 32.539 5.975 55.804-5.91 67.292-17.366 16.753-52.021 7.157-52.355 7.071a10.643 10.643 0 0 0-8.597 1.139 10.747 10.747 0 0 0-4.954 7.103 159.74 159.74 0 0 0 23.641 126.309 86.95 86.95 0 0 0-6.383 9.671l-16.57-11.821a86.213 86.213 0 0 0-40.115-15.184 198.696 198.696 0 0 1-39.416-118.98c.002-63.228 25.341-128.5 43.534-167.196z" fill="#1a73e8" data-original="#000000"></path><path d="M211.998 491.91a138.5 138.5 0 0 1-19.826-96.499c15.539 2.257 42.984 3.095 61.403-14.593 15.238-14.658 20.417-38.052 15.614-69.699a134.059 134.059 0 0 1 76.243 75.491 10.745 10.745 0 0 0 14.883 5.63 73.329 73.329 0 0 0 25.952-23.921c10.52 24.78 23.641 64.476 18.548 98.326a85.583 85.583 0 0 0-55.922-20.794H308.98a85.807 85.807 0 0 0-45.563 13.067l-44.746 27.94c-2.375 1.506-4.46 3.354-6.673 5.052zM11.348 559.073a64.786 64.786 0 0 1 23.351-33.85l2.622-1.977a64.303 64.303 0 0 1 38.707-12.917h47.605a64.76 64.76 0 0 1 37.482 11.96l20.203 14.443-19.859 59.565H.741z" fill="#1a73e8" data-original="#000000"></path><path d="m184.112 596.297 18.956-56.954a64.64 64.64 0 0 1 27.005-34.291l44.736-27.94a64.34 64.34 0 0 1 34.172-9.768h39.911a64.285 64.285 0 0 1 49.518 23.201l17.065 20.417a64.527 64.527 0 0 1 14.453 33.313l6.448 52zM458.081 596.297l-6.834-54.676a86.009 86.009 0 0 0-6.996-24.641 64.643 64.643 0 0 1 28.412-6.652h47.605a64.312 64.312 0 0 1 38.686 12.895l2.751 2.149a64.65 64.65 0 0 1 23.276 33.775l10.574 37.149H458.081z" fill="#1a73e8" data-original="#000000"></path></g></g></svg>