<svg xmlns="http://www.w3.org/2000/svg" version="1.1" xmlns:xlink="http://www.w3.org/1999/xlink" xmlns:svgjs="http://svgjs.com/svgjs" width="512" height="512" x="0" y="0" viewBox="0 0 512 512" style="enable-background:new 0 0 512 512" xml:space="preserve" class=""><g><circle cx="271" cy="256" r="45" fill="#1a73e8" data-original="#000000" class=""></circle><path d="M15 406h15v30c0 24.814 20.186 45 45 45h392c24.814 0 45-20.186 45-45V76c0-24.814-20.186-45-45-45H75c-24.814 0-45 20.186-45 45v30H15c-8.291 0-15 6.709-15 15v90c0 8.291 6.709 15 15 15h15v60H15c-8.291 0-15 6.709-15 15v90c0 8.291 6.709 15 15 15zm406-180c0-8.291 6.709-15 15-15s15 6.709 15 15v60c0 8.291-6.709 15-15 15s-15-6.709-15-15zm-225 30c0-15.26 4.634-29.436 12.495-41.294l-68.101-68.101c-5.859-5.859-5.859-15.352 0-21.211s15.352-5.859 21.211 0l68.101 68.101C241.564 185.634 255.74 181 271 181s29.436 4.634 41.294 12.495l68.101-68.101c5.859-5.859 15.352-5.859 21.211 0s5.859 15.352 0 21.211l-68.101 68.101C341.366 226.564 346 240.74 346 256s-4.634 29.436-12.495 41.294l68.101 68.101c5.859 5.859 5.859 15.352 0 21.211-2.93 2.93-6.768 4.395-10.605 4.395s-7.676-1.465-10.605-4.395l-68.101-68.101C300.436 326.366 286.26 331 271 331s-29.436-4.634-41.294-12.495l-68.101 68.101c-2.93 2.93-6.768 4.395-10.605 4.395s-7.676-1.465-10.605-4.395c-5.859-5.859-5.859-15.352 0-21.211l68.101-68.101C200.634 285.436 196 271.26 196 256z" fill="#1a73e8" data-original="#000000" class=""></path></g></svg>