<svg xmlns="http://www.w3.org/2000/svg" version="1.1" xmlns:xlink="http://www.w3.org/1999/xlink" xmlns:svgjs="http://svgjs.com/svgjs" width="512" height="512" x="0" y="0" viewBox="0 0 512.017 512.017" style="enable-background:new 0 0 512 512" xml:space="preserve"><g><path d="M511.994 164.412c-21.706 7.986-26.234 13.572-85.233 16.759L323.007 310.447a37.842 37.842 0 0 1 3.43 11.551c27.513 0 19.807.532 39.484-1.667 51.159-5.719 98.993-34.903 126.569-78.883 13.79-21.993 19.959-51.222 19.504-77.036zM187.738 301.387c8.616-9.403 24.008-15.249 36.581-11.058l86.097-107.33C178.194 187.35 45.527 181.155.02 164.412c-.343 19.466 3.573 39.861 10.301 58.074 7.422 20.091 21.161 37.682 36.782 52.128 31.766 29.376 74.316 45.738 117.393 47.264l6.558.12c.002 0 10.732-14.127 16.684-20.611zM442.951 145.233l18.793-23.385-54.896-44.118-18.793 23.385 15.756 12.663-153.308 190.758c-12.839-3.092-26.894 1.196-35.715 12.172l-59.039 73.461 54.896 44.118 59.039-73.461c8.822-10.976 9.985-25.624 4.203-37.498L427.195 132.57z" fill="#1a73e8" data-original="#000000"></path></g></svg>