<svg xmlns="http://www.w3.org/2000/svg" version="1.1" xmlns:xlink="http://www.w3.org/1999/xlink" xmlns:svgjs="http://svgjs.com/svgjs" width="512" height="512" x="0" y="0" viewBox="0 0 512 512" style="enable-background:new 0 0 512 512" xml:space="preserve" class=""><g><path d="m425.98 404.769-64.556-64.558L191 169.787 107.232 86.02h.002l-21.33-21.33a261.117 261.117 0 0 0-10.898 10.266c-.008.01-.018.016-.025.025-.01.008-.016.018-.025.027C26.621 123.355 0 187.633 0 256c0 68.381 26.629 132.668 74.98 181.02C123.332 485.371 187.619 512 256 512c68.369 0 132.645-26.619 180.994-74.955.008-.01.018-.016.025-.025.01-.008.016-.017.025-.025a263.595 263.595 0 0 0 10.266-10.896l-21.33-21.33zM256 482C131.385 482 30 380.615 30 256c0-56.922 21.162-108.988 56.02-148.768l89.293 89.293c-17.166 32.236-30.711 69.703-30.711 107.674-.002 29.756 11.586 57.73 32.627 78.772C198.27 404.012 226.244 415.6 256 415.6c37.588 0 70.885-18.717 91.07-47.316l57.697 57.697C364.988 460.838 312.922 482 256 482zM437.02 74.98C388.668 26.629 324.381 0 256 0c-53.133 0-103.789 16.086-146.422 45.938l21.695 21.695C167.041 43.867 209.93 30 256 30c124.615 0 226 101.385 226 226 0 46.072-13.867 88.959-37.635 124.728l21.697 21.695C495.916 359.789 512 309.133 512 256c0-68.381-26.629-132.668-74.98-181.02z" fill="#1a73e8" data-original="#000000" class=""></path><path d="M326.677 179.07a14.995 14.995 0 0 0-16.865-6.691 14.999 14.999 0 0 0-10.973 14.449c0 7.676-6.244 13.92-13.922 13.92a13.828 13.828 0 0 1-9.842-4.076 13.83 13.83 0 0 1-4.076-9.844V111.4a14.999 14.999 0 0 0-25.605-10.607c-1.641 1.641-17.99 18.186-37.061 43.902l159.063 159.063c-.106-38.193-13.801-80.143-40.719-124.688z" fill="#1a73e8" data-original="#000000" class=""></path></g></svg>