<svg xmlns="http://www.w3.org/2000/svg" version="1.1" xmlns:xlink="http://www.w3.org/1999/xlink" xmlns:svgjs="http://svgjs.com/svgjs" width="512" height="512" x="0" y="0" viewBox="0 0 512 512" style="enable-background:new 0 0 512 512" xml:space="preserve"><g><path d="M408.654 337.475c-9.814 14.224-32.651 49.351-32.651 68.525 0 24.814 20.186 45 45 45s45-20.186 45-45c0-19.175-22.837-54.302-32.651-68.525-5.626-8.116-19.073-8.116-24.698 0zM43.483 354.32l49.922-74.883c8.247-12.349 12.598-26.733 12.598-41.602V105c0-24.814 20.186-45 45-45h17.763a44.941 44.941 0 0 0 27.237 27.237V120h-45c-8.291 0-15 6.709-15 15v121c0 8.291 6.709 15 15 15h120c8.291 0 15-6.709 15-15v-15h75c8.276 0 15 6.724 15 15v15h-15c-8.291 0-15 6.709-15 15s6.709 15 15 15h120c8.291 0 15-6.709 15-15s-6.709-15-15-15h-15v-15c0-57.891-47.109-106-105-106h-75v-15c0-8.291-6.709-15-15-15h-45V87.237c17.422-6.213 30-22.707 30-42.237 0-24.814-20.186-45-45-45-19.53 0-36.024 12.578-42.237 30h-17.763c-41.353 0-75 33.647-75 75v132.836a44.768 44.768 0 0 1-7.559 24.961L18.522 337.68c-4.6 6.899-2.739 16.201 4.16 20.801 7.015 4.65 16.28 2.633 20.801-4.161z" fill="#1a73e8" data-original="#000000"></path><path d="M166.002 301v181h-45c-8.291 0-15 6.709-15 15s6.709 15 15 15h180c8.291 0 15-6.709 15-15s-6.709-15-15-15h-45V301z" fill="#1a73e8" data-original="#000000"></path></g></svg>