<svg xmlns="http://www.w3.org/2000/svg" version="1.1" xmlns:xlink="http://www.w3.org/1999/xlink" xmlns:svgjs="http://svgjs.com/svgjs" width="512" height="512" x="0" y="0" viewBox="0 0 512 512" style="enable-background:new 0 0 512 512" xml:space="preserve" class=""><g><path d="M74.667 341.333c0 20.646-8.01 32-10.667 32-.177 0-1.115-.333-2.531-1.938-3.906-4.427-10.656-4.854-15.052-.969-4.427 3.896-4.854 10.635-.969 15.052 6.677 7.594 13.771 9.188 18.552 9.188 18.24 0 32-22.927 32-53.333a10.66 10.66 0 0 0-10.667-10.667 10.662 10.662 0 0 0-10.666 10.667zM53.385 338.458c.625-16.406 6.417-26.958 10.125-28.927 5.208-2.75 7.198-9.208 4.438-14.417-2.75-5.198-9.198-7.208-14.417-4.438-12.385 6.552-20.604 24.552-21.458 46.969-.229 5.885 4.365 10.844 10.25 11.063.135.01.271.01.417.01 5.698.001 10.427-4.51 10.645-10.26zM174.073 296.313c-2.125 1.927-3.406 4.698-3.625 7.688 0 2.771 1.073 5.333 2.771 7.25 4.063 4.271 8.323 16.427 8.115 30.083 0 7.458-1.073 14.719-3.208 20.688-.427 1.281-.635 2.563-.635 3.625.208 4.479 2.99 8.542 7.25 10.031 1.073.427 2.354.635 3.417.635 4.698 0 8.75-2.979 10.24-7.25 2.771-8.323 4.271-17.917 4.271-27.729-.219-18.354-4.698-33.5-13.021-43.74l-.427-.427c-3.836-4.261-10.877-4.688-15.148-.854zM160 341.333c0-5.76-4.698-10.667-10.667-10.667-5.979 0-10.667 4.906-10.667 10.667 0 5.542.427 11.094 1.49 16.635.854 5.125 5.333 8.75 10.458 8.75.635 0 1.271 0 1.917-.219 4.906-.854 8.75-5.115 8.75-10.24 0-.854 0-1.49-.219-2.135-.635-4.051-1.062-8.311-1.062-12.791z" fill="#1a73e8" data-original="#000000" class=""></path><path d="M456.081 235.986c8.674-17.962 13.253-40.142 13.253-65.319 0-59.813-28.115-106.667-64-106.667H128c-35.885 0-64 46.854-64 106.667 0 25.565 5.355 48.447 14.039 66.63-4.517-1.629-9.188-2.63-14.039-2.63-35.885 0-64 46.854-64 106.667C0 401.146 28.115 448 64 448h384c35.885 0 64-46.854 64-106.667 0-55.185-24.034-98.845-55.919-105.347zm-93.414-129.319h10.667a10.66 10.66 0 0 1 10.667 10.667 10.66 10.66 0 0 1-10.667 10.667h-10.667A10.66 10.66 0 0 1 352 117.334a10.66 10.66 0 0 1 10.667-10.667zM384 309.333A10.66 10.66 0 0 1 373.333 320H288a10.66 10.66 0 0 1-10.667-10.667A10.66 10.66 0 0 1 288 298.666h85.333A10.662 10.662 0 0 1 384 309.333zM64 426.667c-20.177 0-42.667-35.042-42.667-85.333C21.333 291.042 43.823 256 64 256s42.667 35.042 42.667 85.333c0 50.292-22.49 85.334-42.667 85.334zm21.333-256c0-50.292 22.49-85.333 42.667-85.333s42.667 35.042 42.667 85.333c0 26.663-6.602 51.466-18.072 68.204-1.202.574-2.319 1.544-3.495 2.24-1.858 1.082-3.697 2.156-5.469 3.505-1.378 1.068-2.693 2.361-4.029 3.602-2.326 2.125-4.607 4.294-6.738 6.868-.113.138-.241.223-.354.362-22.322 5.25-47.177-30.813-47.177-84.781zm85.334 256c-20.177 0-42.667-35.042-42.667-85.333 0-30.747 8.443-55.673 19.587-70.497 2.405-3.201 4.897-5.872 7.413-8.068.152-.13.293-.336.445-.462 2.564-2.172 5.147-3.714 7.69-4.721 2.514-1.03 5.04-1.585 7.531-1.585 20.177 0 42.667 35.042 42.667 85.333s-22.489 85.333-42.666 85.333zM224 117.333a10.66 10.66 0 0 1 10.667-10.667h64a10.66 10.66 0 0 1 10.667 10.667A10.66 10.66 0 0 1 298.667 128h-64A10.66 10.66 0 0 1 224 117.333zm10.667 85.334A10.66 10.66 0 0 1 245.334 192h85.333a10.66 10.66 0 0 1 10.667 10.667 10.66 10.66 0 0 1-10.667 10.667h-85.333a10.662 10.662 0 0 1-10.667-10.667zM309.333 384H288a10.66 10.66 0 0 1-10.667-10.667A10.66 10.66 0 0 1 288 362.666h21.333A10.66 10.66 0 0 1 320 373.333 10.66 10.66 0 0 1 309.333 384zm128 0H352a10.66 10.66 0 0 1-10.667-10.667A10.66 10.66 0 0 1 352 362.666h85.333A10.66 10.66 0 0 1 448 373.333 10.66 10.66 0 0 1 437.333 384zm0-64H416a10.66 10.66 0 0 1-10.667-10.667A10.66 10.66 0 0 1 416 298.666h21.333A10.66 10.66 0 0 1 448 309.333 10.66 10.66 0 0 1 437.333 320z" fill="#1a73e8" data-original="#000000" class=""></path><path d="M117.333 170.667c0-15.406 4.677-27.344 9.302-31.177 4.542-3.75 5.167-10.479 1.406-15.01-3.76-4.563-10.479-5.198-15.01-1.406C102.521 131.771 96 150.01 96 170.667a10.66 10.66 0 0 0 10.667 10.667 10.66 10.66 0 0 0 10.666-10.667zM155.615 198.458c1.938-5.563-1.01-11.635-6.573-13.573-5.5-1.927-11.635 1.01-13.573 6.573-2.958 8.49-6.677 11.167-7.469 11.167-.271 0-1.792-.635-3.802-3.583-3.302-4.865-9.948-6.167-14.813-2.813-4.875 3.313-6.135 9.948-2.813 14.813 5.667 8.333 13.271 12.917 21.427 12.917 11.918-.001 21.98-9.292 27.616-25.501z" fill="#1a73e8" data-original="#000000" class=""></path></g></svg>